<?xml version="1.0" encoding="UTF-8"?>
<svg width="25px" height="25px" viewBox="0 0 25 25" version="1.1" xmlns="http://www.w3.org/2000/svg" xmlns:xlink="http://www.w3.org/1999/xlink">
    <!-- Generator: Sketch 49.3 (51167) - http://www.bohemiancoding.com/sketch -->
    <title>noun_8317</title>
    <desc>Created with Sketch.</desc>
    <defs></defs>
    <g id="Vpaas-developer-homepage" stroke="none" stroke-width="1" fill="none" fill-rule="evenodd">
        <g id="Vpaas-developer-homepage-1200" transform="translate(-434.000000, -2483.000000)">
            <g id="HTML5-video.." transform="translate(41.000000, 2288.000000)">
                <g id="Tabs" transform="translate(0.000000, 176.000000)">
                    <g id="Tab3" transform="translate(328.000000, 0.000000)">
                        <g id="noun_8317" transform="translate(66.000000, 20.000000)">
                            <circle id="Oval" stroke="#00ABCC" stroke-width="1.5" cx="11.5" cy="11.5" r="11.5"></circle>
                            <path d="M8.23194052,5.23723918 C9.05365438,4.41249235 10.1816503,4 11.6159282,4 C12.94273,4 14.00513,4.35278325 14.8028762,5.05834976 C15.6008746,5.76415415 16,6.66573778 16,7.76333854 C16,8.42822674 15.8554369,8.96751172 15.5658061,9.38166927 C15.2766799,9.79558893 14.6835422,10.4040984 13.7868978,11.2069598 C13.1347239,11.7902535 12.7101171,12.2841025 12.5133296,12.6887446 C12.3165421,13.0931489 12.2181484,13.6907157 12.2181484,14.4809692 L10.4420153,14.4809692 C10.4420153,13.5839054 10.5550419,12.8612112 10.7815998,12.3124108 C11.0076531,11.7633725 11.5109749,11.1348807 12.2910607,10.4259838 L13.1054581,9.68259362 C13.3496764,9.46944879 13.5477253,9.24678855 13.6996049,9.01437504 C13.9761165,8.60687827 14.11412,8.18344321 14.11412,7.74430776 C14.11412,7.12961327 13.9155665,6.59651329 13.5182072,6.14476993 C13.1211001,5.69326446 12.4638804,5.46727384 11.5470526,5.46727384 C10.4127494,5.46727384 9.62862702,5.85621559 9.19367624,6.63386121 C8.94920565,7.06657378 8.80994066,7.69078366 8.77613358,8.50625297 L7.00000046,8.50625297 C6.99949588,7.15197444 7.41022666,6.061986 8.23194052,5.23723918 Z M10.4021532,16.0429212 L12.3879406,16.0429212 L12.3879406,18 L10.4021532,18 L10.4021532,16.0429212 Z" id="Shape" fill="#00ABCC" fill-rule="nonzero"></path>
                        </g>
                    </g>
                </g>
            </g>
        </g>
    </g>
</svg>