<?xml version="1.0" encoding="UTF-8"?>
<svg width="28px" height="25px" viewBox="0 0 28 25" version="1.1" xmlns="http://www.w3.org/2000/svg" xmlns:xlink="http://www.w3.org/1999/xlink">
    <!-- Generator: Sketch 49.3 (51167) - http://www.bohemiancoding.com/sketch -->
    <title>noun_585785</title>
    <desc>Created with Sketch.</desc>
    <defs></defs>
    <g id="Vpaas-developer-homepage" stroke="none" stroke-width="1" fill="none" fill-rule="evenodd">
        <g id="Vpaas-developer-homepage-1200" transform="translate(-268.000000, -2612.000000)" fill="#FFFFFF" fill-rule="nonzero">
            <g id="HTML5-video.." transform="translate(41.000000, 2288.000000)">
                <g id="Tabs" transform="translate(0.000000, 176.000000)">
                    <g id="Tab5" transform="translate(164.000000, 129.000000)">
                        <g id="noun_585785" transform="translate(63.000000, 19.000000)">
                            <path d="M13.9303947,0.00329030461 C13.617701,0.0378443242 13.3568677,0.336962655 13.3636335,0.653238006 L13.3636335,2.57308352 L0.6363635,2.57308352 C0.284924192,2.57311884 3.51210935e-05,2.85961286 0,3.21303203 L2.82602164e-16,20.4916417 C3.51210935e-05,20.8450609 0.284924192,21.1315549 0.6363635,21.1315902 L8.03408918,21.1315902 L6.15482822,23.9713617 C5.96732467,24.2488434 6.04789688,24.6727933 6.32386228,24.8612901 C6.59982799,25.0497869 7.02141213,24.9688494 7.20880527,24.6913038 L9.56533885,21.1315902 L18.4346551,21.1315902 L20.7911887,24.6813046 C20.9617943,24.9893758 21.4146394,25.0975271 21.7059612,24.9012869 C21.997283,24.7050467 22.0635177,24.2472435 21.8451658,23.9713617 L19.9659048,21.1315902 L27.3636305,21.1315902 C27.7150698,21.1315549 27.9999589,20.8450609 27.999994,20.4916417 L27.999994,3.21303203 C28.0014144,2.88177257 27.7512431,2.60416631 27.4232896,2.57308352 C27.4034141,2.57214568 27.3835059,2.57214568 27.3636305,2.57308352 L14.6363605,2.57308352 L14.6363605,0.653238006 C14.6441369,0.290211217 14.2893006,-0.0364696961 13.9303947,0.00329030461 Z M1.272727,3.85298054 L26.727267,3.85298054 L26.727267,19.8516932 L1.272727,19.8516932 L1.272727,3.85298054 Z M4.39488542,7.37269732 C4.06693193,7.40378011 3.81676061,7.68138637 3.818181,8.01264583 L3.818181,15.6920279 C3.81821612,16.0454471 4.10310519,16.3319411 4.4545445,16.3319764 L12.0909065,16.3319764 C12.4423458,16.3319411 12.7272349,16.0454471 12.72727,15.6920279 L12.72727,8.01264583 C12.7272349,7.65922666 12.4423458,7.37273264 12.0909065,7.37269732 L4.4545445,7.37269732 C4.43466907,7.37175947 4.41476084,7.37175947 4.39488542,7.37269732 Z M15.8494284,7.37269732 C15.6220452,7.38337012 15.4176019,7.51523887 15.3131284,7.71861829 C15.2086549,7.92199772 15.2200276,8.16598105 15.3429614,8.3586407 C15.4658953,8.55130036 15.6817085,8.6633586 15.9090875,8.65259433 L23.5454495,8.65259433 C23.7749445,8.65585743 23.9884089,8.53460263 24.1041033,8.33526057 C24.2197977,8.13591852 24.2197977,7.88937313 24.1041033,7.69003108 C23.9884089,7.49068902 23.7749445,7.36943422 23.5454495,7.37269732 L15.9090875,7.37269732 C15.8892121,7.37175947 15.8693038,7.37175947 15.8494284,7.37269732 Z M5.090908,8.65259433 L11.454543,8.65259433 L11.454543,15.0520794 L5.090908,15.0520794 L5.090908,8.65259433 Z M15.8494284,11.2123884 C15.6220452,11.2230612 15.4176019,11.3549299 15.3131284,11.5583093 C15.2086549,11.7616888 15.2200276,12.0056721 15.3429614,12.1983317 C15.4658953,12.3909914 15.6817085,12.5030496 15.9090875,12.4922854 L23.5454495,12.4922854 C23.7749445,12.4955485 23.9884089,12.3742937 24.1041033,12.1749516 C24.2197977,11.9756096 24.2197977,11.7290642 24.1041033,11.5297221 C23.9884089,11.3303801 23.7749445,11.2091253 23.5454495,11.2123884 L15.9090875,11.2123884 C15.8892121,11.2114505 15.8693038,11.2114505 15.8494284,11.2123884 Z M15.8494284,15.0520794 C15.6220452,15.0627522 15.4176019,15.1946209 15.3131284,15.3980004 C15.2086549,15.6013798 15.2200276,15.8453631 15.3429614,16.0380228 C15.4658953,16.2306824 15.6817085,16.3427407 15.9090875,16.3319764 L23.5454495,16.3319764 C23.7749445,16.3352395 23.9884089,16.2139847 24.1041033,16.0146426 C24.2197977,15.8153006 24.2197977,15.5687552 24.1041033,15.3694131 C23.9884089,15.1700711 23.7749445,15.0488163 23.5454495,15.0520794 L15.9090875,15.0520794 C15.8892121,15.0511415 15.8693038,15.0511415 15.8494284,15.0520794 Z" id="Shape"></path>
                        </g>
                    </g>
                </g>
            </g>
        </g>
    </g>
</svg>
