<?xml version="1.0" encoding="UTF-8"?>
<svg width="25px" height="21px" viewBox="0 0 25 21" version="1.1" xmlns="http://www.w3.org/2000/svg" xmlns:xlink="http://www.w3.org/1999/xlink">
    <!-- Generator: Sketch 49.3 (51167) - http://www.bohemiancoding.com/sketch -->
    <title>noun_1253397</title>
    <desc>Created with Sketch.</desc>
    <defs></defs>
    <g id="Vpaas-developer-homepage" stroke="none" stroke-width="1" fill="none" fill-rule="evenodd">
        <g id="Vpaas-developer-homepage-1920" transform="translate(-739.000000, -3141.000000)" fill="#FFFFFF" fill-rule="nonzero">
            <g id="HTML5-video.." transform="translate(290.000000, 2698.000000)">
                <g id="Tabs" transform="translate(0.000000, 281.000000)">
                    <g id="Tab6" transform="translate(375.000000, 142.000000)">
                        <g id="noun_1253397" transform="translate(74.000000, 20.000000)">
                            <path d="M22.5,4.99110164e-16 L2.5,4.99110164e-16 C1.11928813,0 2.46716228e-16,1.13216728 0,2.52876639 L0,18.4712336 C2.46716228e-16,19.8678327 1.11928813,21 2.5,21 L22.5,21 C23.8807119,21 25,19.8678327 25,18.4712336 L25,2.52876639 C25,1.13216728 23.8807119,0 22.5,4.99110164e-16 Z M1.66666667,2.52876639 C1.66666667,2.06323335 2.03976271,1.68584426 2.5,1.68584426 L22.5,1.68584426 C22.9602373,1.68584426 23.3333333,2.06323335 23.3333333,2.52876639 L23.3333333,15.6249666 L1.66666667,15.6249666 L1.66666667,2.52876639 Z M23.3333333,18.4712336 C23.3333333,18.9367666 22.9602373,19.3141557 22.5,19.3141557 L2.5,19.3141557 C2.03976271,19.3141557 1.66666667,18.9367666 1.66666667,18.4712336 L1.66666667,17.3108108 L23.3333333,17.3108108 L23.3333333,18.4712336 Z" id="Shape"></path>
                            <path d="M16.5998216,8.23210876 L10.1978704,4.11893412 C9.95070964,3.9603045 9.64618349,3.96035872 9.39906841,4.11907634 C9.15195333,4.27779397 8.99981712,4.57104587 9.00000016,4.88830491 L9.00000016,13.1116951 C8.99981712,13.4289541 9.15195333,13.722206 9.39906841,13.8809237 C9.64618349,14.0396413 9.95070964,14.0396955 10.1978704,13.8810659 L16.5998216,9.77085036 C16.8474036,9.61242129 17,9.31904417 17,9.00147956 C17,8.68391495 16.8474036,8.39053782 16.5998216,8.23210876 Z M10.5971605,11.5729535 L10.5971605,6.43000563 L14.6033711,9.00147956 L10.5971605,11.5729535 Z" id="Shape"></path>
                        </g>
                    </g>
                </g>
            </g>
        </g>
    </g>
</svg>
