<?xml version="1.0" encoding="UTF-8"?>
<svg width="30px" height="24px" viewBox="0 0 30 24" version="1.1" xmlns="http://www.w3.org/2000/svg" xmlns:xlink="http://www.w3.org/1999/xlink">
    <!-- Generator: Sketch 49.3 (51167) - http://www.bohemiancoding.com/sketch -->
    <title>noun_325113</title>
    <desc>Created with Sketch.</desc>
    <defs></defs>
    <g id="Vpaas-developer-homepage" stroke="none" stroke-width="1" fill="none" fill-rule="evenodd">
        <g id="Vpaas-developer-homepage-1200" transform="translate(-103.000000, -2484.000000)" fill="#FFFFFF" fill-rule="nonzero">
            <g id="HTML5-video.." transform="translate(41.000000, 2288.000000)">
                <g id="Tabs" transform="translate(0.000000, 176.000000)">
                    <g id="Tab1">
                        <g id="noun_325113" transform="translate(62.000000, 20.000000)">
                            <path d="M18.7876923,10.5794183 L13.7107692,7.07895776 C13.5676923,6.9789446 13.3876923,6.97394394 13.24,7.06395578 C13.0923077,7.14896697 13,7.31398868 13,7.49901303 L13,14.4999342 C13,14.6849585 13.0923077,14.8499803 13.24,14.9399921 C13.3092308,14.9799974 13.3830769,15 13.4615385,15 C13.5492308,15 13.6323077,14.9749967 13.7107692,14.9199895 L18.7876923,11.4195289 C18.9215385,11.329517 19,11.169496 19,10.9994736 C19,10.8294512 18.9215385,10.6694302 18.7876923,10.5794183 Z M13.9230769,13.5898144 L13.9230769,8.40913278 L17.68,10.9994736 L13.9230769,13.5898144 Z" id="Shape"></path>
                            <path d="M29.4827586,0 L24.3103448,0 L5.68965517,0 L0.517241379,0 C0.232758621,0 0,0.234782609 0,0.52173913 L0,6.26086957 L0,12 L0,17.7391304 L0,23.4782609 C0,23.7652174 0.232758621,24 0.517241379,24 L5.68965517,24 L24.3103448,24 L29.4827586,24 C29.7672414,24 30,23.7652174 30,23.4782609 L30,17.7391304 L30,12 L30,6.26086957 L30,0.52173913 C30,0.234782609 29.7672414,0 29.4827586,0 Z M5.17241379,11.4782609 L1.03448276,11.4782609 L1.03448276,6.7826087 L5.17241379,6.7826087 L5.17241379,11.4782609 Z M1.03448276,12.5217391 L5.17241379,12.5217391 L5.17241379,17.2173913 L1.03448276,17.2173913 L1.03448276,12.5217391 Z M6.20689655,17.7391304 L6.20689655,12 L6.20689655,6.26086957 L6.20689655,1.04347826 L23.7931034,1.04347826 L23.7931034,6.26086957 L23.7931034,12 L23.7931034,17.7391304 L23.7931034,22.9565217 L6.20689655,22.9565217 L6.20689655,17.7391304 Z M28.9655172,11.4782609 L24.8275862,11.4782609 L24.8275862,6.7826087 L28.9655172,6.7826087 L28.9655172,11.4782609 Z M24.8275862,12.5217391 L28.9655172,12.5217391 L28.9655172,17.2173913 L24.8275862,17.2173913 L24.8275862,12.5217391 Z M28.9655172,1.04347826 L28.9655172,5.73913043 L24.8275862,5.73913043 L24.8275862,1.04347826 L28.9655172,1.04347826 Z M1.03448276,1.04347826 L5.17241379,1.04347826 L5.17241379,5.73913043 L1.03448276,5.73913043 L1.03448276,1.04347826 Z M1.03448276,22.9565217 L1.03448276,18.2608696 L5.17241379,18.2608696 L5.17241379,22.9565217 L1.03448276,22.9565217 Z M28.9655172,22.9565217 L24.8275862,22.9565217 L24.8275862,18.2608696 L28.9655172,18.2608696 L28.9655172,22.9565217 Z" id="Shape"></path>
                        </g>
                    </g>
                </g>
            </g>
        </g>
    </g>
</svg>
