<?xml version="1.0" encoding="UTF-8"?>
<svg width="21px" height="21px" viewBox="0 0 21 21" version="1.1" xmlns="http://www.w3.org/2000/svg" xmlns:xlink="http://www.w3.org/1999/xlink">
    <!-- Generator: Sketch 49.3 (51167) - http://www.bohemiancoding.com/sketch -->
    <title>noun_1581255</title>
    <desc>Created with Sketch.</desc>
    <defs></defs>
    <g id="Vpaas-developer-homepage" stroke="none" stroke-width="1" fill="none" fill-rule="evenodd">
        <g id="Vpaas-developer-homepage-1200" transform="translate(-108.000000, -2615.000000)" fill="#FFFFFF" fill-rule="nonzero">
            <g id="HTML5-video.." transform="translate(41.000000, 2288.000000)">
                <g id="Tabs" transform="translate(0.000000, 176.000000)">
                    <g id="Tab4" transform="translate(0.000000, 129.000000)">
                        <g id="noun_1581255" transform="translate(67.000000, 22.000000)">
                            <path d="M18.75,1.66533454e-16 L2.25,1.66533454e-16 C1.00735931,-1.66533454e-16 1.66533454e-16,1.00735931 0,2.25 L0,18.75 C1.66533454e-16,19.9926407 1.00735931,21 2.25,21 L18.75,21 C19.9926407,21 21,19.9926407 21,18.75 L21,2.25 C21,1.00735931 19.9926407,1.66533454e-16 18.75,1.66533454e-16 Z M2.25,1.5 L18.75,1.5 C19.1642136,1.5 19.5,1.83578644 19.5,2.25 L19.5,9 L1.5,9 L1.5,2.25 C1.5,1.83578644 1.83578644,1.5 2.25,1.5 Z M18.75,19.5 L2.25,19.5 C1.83578644,19.5 1.5,19.1642136 1.5,18.75 L1.5,10.5 L19.5,10.5 L19.5,18.75 C19.5,19.1642136 19.1642136,19.5 18.75,19.5 Z" id="Shape"></path>
                            <path d="M9.75,5 L17.25,5 C17.6642136,5 18,4.55228475 18,4 C18,3.44771525 17.6642136,3 17.25,3 L9.75,3 C9.33578644,3 9,3.44771525 9,4 C9,4.55228475 9.33578644,5 9.75,5 Z" id="Shape"></path>
                            <path d="M9.75,8 L17.25,8 C17.6642136,8 18,7.55228475 18,7 C18,6.44771525 17.6642136,6 17.25,6 L9.75,6 C9.33578644,6 9,6.44771525 9,7 C9,7.55228475 9.33578644,8 9.75,8 Z" id="Shape"></path>
                            <path d="M5,7 C6.1045695,7 7,6.1045695 7,5 C7,3.8954305 6.1045695,3 5,3 C3.8954305,3 3,3.8954305 3,5 C3,6.1045695 3.8954305,7 5,7 Z M5,4.33333333 C5.36818983,4.33333333 5.66666667,4.63181017 5.66666667,5 C5.66666667,5.36818983 5.36818983,5.66666667 5,5.66666667 C4.63181017,5.66666667 4.33333333,5.36818983 4.33333333,5 C4.33333333,4.63181017 4.63181017,4.33333333 5,4.33333333 Z" id="Shape"></path>
                        </g>
                    </g>
                </g>
            </g>
        </g>
    </g>
</svg>
