<?xml version="1.0" encoding="UTF-8"?>
<svg width="27px" height="27px" viewBox="0 0 27 27" version="1.1" xmlns="http://www.w3.org/2000/svg" xmlns:xlink="http://www.w3.org/1999/xlink">
    <!-- Generator: Sketch 49.3 (51167) - http://www.bohemiancoding.com/sketch -->
    <title>noun_1231135</title>
    <desc>Created with Sketch.</desc>
    <defs></defs>
    <g id="Vpaas-developer-homepage" stroke="none" stroke-width="1" fill="none" fill-rule="evenodd">
        <g id="Vpaas-developer-homepage-1200" transform="translate(-269.000000, -2482.000000)" fill="#00ABCC" fill-rule="nonzero">
            <g id="HTML5-video.." transform="translate(41.000000, 2288.000000)">
                <g id="Tabs" transform="translate(0.000000, 176.000000)">
                    <g id="Tab2" transform="translate(164.000000, 0.000000)">
                        <g id="noun_1231135" transform="translate(64.000000, 18.000000)">
                            <path d="M23.6453122,0.086279851 C23.4466626,-0.0287599503 23.2019163,-0.0287599503 23.0032667,0.086279851 C22.9165906,0.134579969 14.3902262,5.00323188 8.55724276,5.00323188 L5.6359357,5.00323188 C2.94104218,4.99946157 0.621752546,6.91255568 0.104989761,9.56549953 C-0.411773024,12.2184434 1.01906184,14.8664761 3.51718552,15.8804185 L6.9296574,25.8205828 C7.10425142,26.4983128 7.70551757,26.9779005 8.40315184,26.9958857 C8.47581423,27.0013714 8.54878492,27.0013714 8.62144731,26.9958857 C9.86566851,26.9116186 11.0738969,26.5414353 12.1526976,25.913963 C12.3593361,25.8163928 12.5481586,25.6846852 12.7112772,25.5243421 C12.7358985,25.4993964 12.7584452,25.4724733 12.778692,25.4438419 C13.2886501,24.734297 13.2886501,23.777021 12.778692,23.0674761 C12.412726,22.4782146 11.4336066,20.1308289 11.3276691,16.5920402 C16.884573,17.6095627 22.9262212,21.1708914 22.9968463,21.2256316 C23.1948982,21.3403308 23.4388253,21.3407025 23.6372239,21.2266075 C23.8356224,21.1125125 23.9585389,20.9011762 23.9599145,20.6717902 L23.9599145,14.045014 C25.7175528,13.7275217 26.9972415,12.1945361 27,10.4031851 L27,9.59818312 C26.9964032,7.80378223 25.7117496,6.2697088 23.9502838,5.95635421 L23.9502838,0.643341213 C23.9534101,0.416768868 23.8375945,0.205220026 23.6453122,0.086279851 Z M1.31817965,10.6511257 C1.31992268,8.25022747 3.25519361,6.30186568 5.64877661,6.29123503 L7.92803816,6.29123503 L7.92803816,15.0110164 L5.64877661,15.0110164 C3.25519361,15.0003857 1.31992268,13.0520239 1.31817965,10.6511257 Z M11.7193169,23.7565577 L11.7385783,23.7855378 C11.923879,24.0348438 11.9366479,24.3729678 11.7706805,24.6356199 C11.7021051,24.6879538 11.6277868,24.7322485 11.5491748,24.7676402 L11.4785498,24.8095003 C11.2281521,24.9769407 10.2747145,25.5340021 8.49624844,25.7046625 L8.45130525,25.7046625 C8.33894729,25.7207625 8.2233791,25.6145023 8.17522568,25.4470619 L8.17522568,25.4148618 L5.01957201,16.2603794 C5.23268204,16.2854778 5.44704447,16.2983788 5.66161752,16.2990195 L8.58292458,16.2990195 C9.07423248,16.3011081 9.56505933,16.3301315 10.0532088,16.3859597 C10.1109929,19.9666085 11.0547998,22.7390353 11.7032658,23.7565577 L11.7193169,23.7565577 Z M22.6982951,5.89517406 L22.6982951,19.5544475 C20.3740903,18.2857644 14.3517035,15.265397 9.21533941,15.0238964 L9.21533941,6.27513499 C14.1526694,6.02075437 20.3291472,2.98428694 22.6982951,1.73170388 L22.6982951,5.89517406 Z M25.715909,9.59818312 L25.715909,10.4031851 C25.713602,11.4875564 24.9919248,12.437808 23.9502838,12.7280308 L23.9502838,7.27333743 C24.9919248,7.56356016 25.713602,8.51381184 25.715909,9.59818312 Z" id="Shape"></path>
                        </g>
                    </g>
                </g>
            </g>
        </g>
    </g>
</svg>